<svg width="20" height="17" viewBox="0 0 20 17" fill="none" xmlns="http://www.w3.org/2000/svg">
<path d="M19.0909 0H0.909091C0.40703 0 0 0.40703 0 0.909091V4.54545V15.4545C0 15.9566 0.40703 16.3636 0.909091 16.3636H19.0909C19.593 16.3636 20 15.9566 20 15.4545V4.54545V0.909091C20 0.40703 19.593 0 19.0909 0ZM7.87879 10.9091V9.09091H12.1212V10.9091H7.87879ZM12.1212 12.7273V14.5455H7.87879V12.7273H12.1212ZM12.1212 5.45455V7.27273H7.87879V5.45455H12.1212ZM13.9394 5.45455H18.1818V7.27273H13.9394V5.45455ZM6.06061 5.45455V7.27273H1.81818V5.45455H6.06061ZM1.81818 9.09091H6.06061V10.9091H1.81818V9.09091ZM13.9394 9.09091H18.1818V10.9091H13.9394V9.09091ZM1.81818 12.7273H6.06061V14.5455H1.81818V12.7273ZM13.9394 14.5455V12.7273H18.1818V14.5455H13.9394Z" fill="white"/>
</svg>
